<svg xmlns="http://www.w3.org/2000/svg" viewBox="0 0 80.41 98.34"><defs><style>.cls-1{fill:#71c7da;}.cls-2{fill:#005563;}</style></defs><g id="Capa_2" data-name="Capa 2"><g id="Logo"><path class="cls-1" d="M28.05,59.88s-2.44.12-3.82-3c-1.15-2.61-3.89-1.65-.63-8.24s10.23-13.4,23.64-10.81c31.58,2.81,23.6,48.28-8.68,59.05C45.38,93.52,66.06,72.69,55,53.75,49.28,42.23,40.14,43,32.85,47.58,26.27,51.78,25.32,55.19,28.05,59.88Z"/><path class="cls-2" d="M35.23,59.26c-2.21-.06-3.52-1.78-4-5.37s1.21-9,8.87-10.9c16.24-4,32.14,18.75,19.08,36.66S32,97.3,26.82,98.18c10.58.89,21.61-1.89,31.76-10.87s25.5-27.07,14.38-49c-9.48-18.73-37.22-15.81-48.79-3.62-4.46,4.7-5.62,13.88-2.8,19.71C24.58,61,31.77,63.85,35.23,59.26Z"/><path class="cls-1" d="M12.39,24.32a36.85,36.85,0,0,0-5.7,22.21A23.27,23.27,0,0,0,9.87,57c8.61,14.54,27.42,25.08,38.61,4.31C40.48,87.42,10.72,83.19,2.07,55-.28,38.31,5.73,31.52,12.39,24.32Z"/><path class="cls-2" d="M74.63,15.26a10.12,10.12,0,0,1,1.84,1,3.65,3.65,0,0,1,1.86,2.11A2.48,2.48,0,0,0,78,17a7.21,7.21,0,0,0-.93-1.21l1.82,0a3,3,0,0,1,.67,0,1.36,1.36,0,0,1,.87.65,1.41,1.41,0,0,0-.59-1.13,3.35,3.35,0,0,0-1.22-.5,9.38,9.38,0,0,0-1.18-.2,11.73,11.73,0,0,1-1.77-.22c-.29-.08-.58-.2-.87-.29a6.33,6.33,0,0,0-1.14-.28.22.22,0,0,0-.14,0,.16.16,0,0,0,0,.1c-.08.3-.36.82-.07,1S74.27,15.08,74.63,15.26Z"/><path class="cls-2" d="M74.16,13.84c0,.07,0,.12,0,.13s0,0-.06.07A4,4,0,0,1,71,17.25a12.25,12.25,0,0,1-4.75,0l-2.4-.43a1.66,1.66,0,0,0-.65.13l-.57.17-1.15.35c-.79.16-1.56.35-2.35.47a19.26,19.26,0,0,1-2.39.2,13.17,13.17,0,0,1-8.85-2.79,8.22,8.22,0,0,1-.86-.8l-.2-.22-.23-.28a.21.21,0,0,0-.21-.1l-.21,0-.31,0c-.81-.09-1.62-.16-2.43-.2-1.62-.09-3.24-.1-4.86,0a42.56,42.56,0,0,0-16,3.61,35.18,35.18,0,0,0-7.08,4.27,33.44,33.44,0,0,0-5.62,6.19C6.92,31.53,6.53,35,5.35,39.58a20.33,20.33,0,0,0-.51,4.11c-.11,1.24,0,3.9,0,5.08a22.05,22.05,0,0,0,.44,5.74c.85,4.32,1,8.91,3.13,13.08C4.34,61.66.86,54.12.19,47A35.76,35.76,0,0,1,4.47,25.66a59.76,59.76,0,0,1,5.12-7.82,45.2,45.2,0,0,1,6.52-6.67A40.59,40.59,0,0,1,32.72,2.92a48.68,48.68,0,0,1,8.49-1.23c1.42-.09,2.86-.11,4.28-.06.72,0,1.43.07,2.14.12l1.07.11c.38,0,.59.07,1.31.19l.19-.39a1.87,1.87,0,0,1,.14-.21,2.69,2.69,0,0,1,.27-.32A2.91,2.91,0,0,1,51.3.61a4.44,4.44,0,0,1,.8-.36A8.6,8.6,0,0,1,53,.06a9.72,9.72,0,0,1,3.66.38,28.32,28.32,0,0,1,6.87,3.17c.59.32,1.14.72,1.7,1.08l.85.55.42.27a1.3,1.3,0,0,0,.52.2A14.42,14.42,0,0,1,70.71,7.2,7.33,7.33,0,0,1,73.53,10,6.27,6.27,0,0,1,74.16,13.84Z"/></g></g></svg>